<svg width="1202" height="311" viewBox="0 0 1202 311" fill="none" xmlns="http://www.w3.org/2000/svg">
<path d="M297 155.5C297 235.857 231.634 301 151 301C70.3664 301 5 235.857 5 155.5C5 75.1426 70.3664 10 151 10C231.634 10 297 75.1426 297 155.5ZM63.4 155.5C63.4 203.714 102.62 242.8 151 242.8C199.38 242.8 238.6 203.714 238.6 155.5C238.6 107.286 199.38 68.2 151 68.2C102.62 68.2 63.4 107.286 63.4 155.5Z" fill="url(#paint0_linear_1_2)"/>
<path d="M426.21 85.5759C433.083 85.5759 437.256 86.3141 440.692 86.8063V60.7225C436.765 60.2304 431.365 59 420.319 59C386.201 59 366.073 69.089 366.073 100.586V109.937H343V133.806H366.073V242.325H400.928V133.806H437.747V109.937H400.928V104.031C400.928 87.5445 412.219 85.5759 426.21 85.5759Z" fill="white"/>
<path d="M468.324 109.937V242.325H503.179V178.346C503.179 147.832 528.461 139.958 551.289 139.958C560.125 139.958 566.753 141.188 571.416 142.419V108.215C567.489 107.23 561.844 106.492 556.689 106.492C531.898 106.492 515.452 113.874 503.424 127.408H502.197V109.937H468.324Z" fill="white"/>
<path d="M704.397 242.325H738.271V109.937H703.661V178.592C703.661 207.382 682.061 217.471 662.915 217.471C640.578 217.471 627.814 208.613 627.814 186.22V109.937H592.959V198.031C592.959 231.497 617.505 245.77 650.151 245.77C671.506 245.77 689.915 239.372 703.416 225.592H704.397V242.325Z" fill="white"/>
<path d="M803.729 109.937H769.611V242.325H804.466V170.471C804.466 144.141 824.593 135.037 841.53 135.037C860.921 135.037 873.44 142.911 873.44 163.335V242.325H908.295V170.471C908.295 144.141 928.422 135.037 945.359 135.037C964.75 135.037 977.269 142.911 977.269 163.335V242.325H1012.12V153.984C1012.12 120.518 987.823 106.738 958.368 106.738C936.523 106.738 915.413 112.644 902.895 127.901C894.058 112.89 876.385 106.738 854.785 106.738C835.639 106.738 816.248 112.398 804.711 127.408H803.484L803.729 109.937Z" fill="white"/>
<path d="M1116.74 105.508C1065.93 105.508 1036.47 131.592 1036.47 176.131C1036.47 220.67 1065.93 247 1116.74 247C1167.55 247 1197 220.67 1197 176.131C1197 131.592 1167.55 105.508 1116.74 105.508ZM1116.74 219.44C1089 219.44 1072.55 204.429 1072.55 176.131C1072.55 147.832 1089 133.068 1116.74 133.068C1144.47 133.068 1160.92 147.832 1160.92 176.131C1160.92 204.429 1144.47 219.44 1116.74 219.44Z" fill="white"/>
<defs>
<linearGradient id="paint0_linear_1_2" x1="-15.7191" y1="315.593" x2="278.396" y2="-16.8121" gradientUnits="userSpaceOnUse">
<stop stop-color="#E025FF"/>
<stop offset="0.574226" stop-color="#31C1FF"/>
<stop offset="0.909141" stop-color="#10B981"/>
</linearGradient>
</defs>
</svg>
