<?xml version="1.0" standalone="no"?>
<!DOCTYPE svg PUBLIC "-//W3C//DTD SVG 20010904//EN"
 "http://www.w3.org/TR/2001/REC-SVG-20010904/DTD/svg10.dtd">
<svg version="1.0" xmlns="http://www.w3.org/2000/svg"
 width="1218.000000pt" height="1218.000000pt" viewBox="0 0 1218.000000 1218.000000"
 preserveAspectRatio="xMidYMid meet">
<metadata>
Created by potrace 1.14, written by Peter Selinger 2001-2017
</metadata>
<g transform="translate(0.000000,1218.000000) scale(0.100000,-0.100000)"
fill="#000000" stroke="none">
<path d="M5957 12154 c-1 -1 -72 -5 -157 -8 -85 -4 -171 -8 -190 -10 -19 -2
-69 -7 -110 -10 -41 -4 -88 -9 -105 -11 -16 -2 -52 -7 -80 -10 -79 -10 -108
-14 -145 -20 -19 -3 -51 -8 -70 -11 -19 -3 -42 -7 -50 -9 -8 -2 -37 -7 -65
-11 -27 -3 -53 -8 -56 -10 -4 -2 -24 -6 -45 -10 -22 -3 -55 -9 -74 -14 -19 -5
-46 -11 -60 -14 -198 -36 -742 -205 -927 -287 -23 -11 -45 -19 -48 -19 -3 0
-30 -11 -58 -24 -52 -24 -101 -45 -192 -86 -293 -131 -660 -345 -973 -567 -96
-68 -311 -232 -338 -258 -6 -5 -32 -28 -59 -50 -357 -295 -737 -709 -1028
-1116 -92 -130 -287 -431 -287 -444 0 -4 -8 -19 -19 -33 -29 -43 -68 -115
-161 -297 -75 -147 -108 -218 -200 -430 -61 -138 -198 -543 -236 -690 -4 -16
-8 -34 -10 -40 -29 -96 -112 -476 -129 -590 -3 -22 -10 -68 -16 -103 -5 -34
-12 -84 -15 -110 -2 -26 -6 -60 -9 -77 -2 -16 -6 -61 -10 -100 -3 -38 -8 -87
-10 -108 -23 -225 -23 -667 0 -962 9 -113 16 -191 20 -215 2 -14 6 -47 10 -75
11 -97 17 -140 21 -160 3 -11 7 -38 10 -60 8 -64 54 -294 71 -360 8 -33 17
-68 19 -79 14 -72 96 -367 124 -446 5 -14 25 -72 45 -130 20 -58 40 -114 44
-125 5 -11 37 -90 71 -175 60 -149 220 -484 296 -620 414 -745 981 -1400 1649
-1905 94 -71 233 -171 285 -205 640 -424 1298 -709 2025 -878 72 -17 144 -33
160 -36 17 -2 55 -9 85 -15 30 -6 71 -13 90 -16 19 -3 46 -7 60 -10 66 -12
194 -30 300 -40 30 -4 66 -8 80 -10 159 -28 1002 -27 1215 1 17 2 55 6 85 9
30 3 66 8 80 10 14 3 48 7 75 11 28 3 59 8 70 10 10 2 37 6 60 9 22 3 99 17
170 31 1064 204 2074 699 2875 1410 196 174 414 393 570 574 36 41 67 77 70
80 13 12 169 210 222 282 109 147 348 506 348 523 0 2 26 47 58 102 80 134
206 386 287 573 36 85 70 164 75 175 62 142 207 596 245 765 2 8 15 62 28 120
14 58 28 121 31 141 3 20 8 42 10 50 3 8 7 30 10 49 3 19 8 47 11 63 3 15 7
39 10 55 3 15 8 47 10 72 3 25 8 56 10 70 3 14 7 48 11 75 3 28 7 61 9 75 2
14 7 57 10 95 4 39 8 86 10 105 23 205 23 767 0 1010 -9 93 -16 156 -20 190
-2 19 -7 58 -10 85 -4 28 -13 93 -21 145 -44 280 -90 488 -166 750 -22 74 -44
151 -50 170 -23 80 -142 399 -189 508 -116 265 -229 492 -331 661 -21 34 -38
64 -38 66 0 11 -233 370 -272 420 -5 6 -55 72 -112 148 -57 76 -114 150 -127
165 -13 15 -46 54 -74 87 -126 153 -404 442 -536 560 -183 162 -216 191 -258
223 -19 15 -48 39 -65 53 -84 70 -409 304 -458 330 -13 6 -25 15 -28 18 -4 6
-51 35 -189 118 -348 210 -795 414 -1195 548 -143 47 -493 144 -576 159 -14 2
-25 5 -25 6 0 1 -9 3 -20 5 -11 2 -67 13 -125 24 -58 12 -121 24 -140 27 -19
2 -57 9 -85 14 -27 5 -72 12 -100 15 -27 3 -63 8 -80 10 -53 7 -118 14 -190
21 -38 3 -86 8 -105 10 -87 9 -606 24 -613 18z m403 -2438 c41 -4 95 -8 119
-11 49 -4 135 -15 166 -21 11 -2 40 -7 65 -10 25 -3 110 -21 190 -39 746 -171
1378 -542 1911 -1121 246 -268 491 -656 647 -1026 88 -206 190 -544 216 -708
3 -19 8 -46 10 -60 5 -30 23 -150 30 -201 14 -102 20 -214 20 -414 1 -260 -9
-407 -39 -580 -1 -11 -6 -36 -9 -55 -3 -19 -8 -46 -10 -60 -46 -272 -185 -682
-319 -940 -87 -167 -215 -384 -269 -455 -4 -5 -40 -53 -80 -105 -184 -244
-352 -419 -618 -644 -66 -56 -232 -173 -380 -268 -166 -107 -423 -233 -655
-319 -72 -27 -286 -96 -325 -104 -8 -2 -53 -12 -100 -24 -47 -11 -98 -23 -115
-26 -102 -18 -197 -34 -245 -40 -30 -3 -66 -8 -80 -10 -161 -24 -609 -24 -795
0 -16 2 -53 6 -81 10 -29 3 -62 8 -75 10 -13 3 -40 7 -59 10 -19 3 -46 7 -60
10 -153 31 -204 43 -320 76 -755 214 -1410 655 -1889 1269 -45 58 -85 110 -89
115 -5 6 -31 44 -58 85 -142 211 -257 427 -348 650 -15 36 -31 74 -36 85 -21
44 -91 268 -124 395 -36 137 -70 314 -81 415 -4 31 -8 66 -10 77 -26 131 -26
583 -1 808 12 109 17 147 21 160 2 8 7 35 10 60 12 86 67 316 107 445 52 169
135 380 210 530 55 109 180 336 200 360 5 6 41 58 82 117 274 396 641 746
1061 1009 66 42 134 83 150 91 17 8 73 38 125 65 181 95 438 197 640 254 136
39 115 34 275 68 139 29 183 36 280 47 28 3 60 7 71 9 12 3 68 8 125 11 57 3
105 7 106 8 5 4 366 -2 433 -8z"/>
</g>
</svg>
